<svg id="Logo_weiss" data-name="Logo weiss" xmlns="http://www.w3.org/2000/svg" width="328.57" height="57.498" viewBox="0 0 328.57 57.498">
  <path id="Vereinigungsmenge_7" data-name="Vereinigungsmenge 7" d="M246.009,36.077c0-13.014,7.894-22.633,21.71-22.633,10.033,0,19.242,5.174,19.982,15.843h-11.43c-.74-4.688-3.783-7.194-8.635-7.194-7.482,0-9.95,7.437-9.95,13.579,0,5.98,2.385,13.176,9.7,13.176,5.428,0,8.551-3.4,9.292-8.489h11.265C286.467,51.436,278.656,57.5,267.473,57.5,254.644,57.5,246.009,48.6,246.009,36.077Zm43.171,6.709h11.1c.082,5.013,4.358,7.03,8.963,7.03,3.37,0,7.647-1.294,7.647-5.334,0-3.475-4.851-4.686-13.239-6.466-6.742-1.454-13.487-3.8-13.487-11.153,0-10.669,9.376-13.419,18.5-13.419,9.292,0,17.844,3.073,18.75,13.338h-11.1c-.328-4.445-3.783-5.659-7.975-5.659-2.634,0-6.5.485-6.5,3.881,0,4.121,6.579,4.687,13.24,6.222,6.825,1.537,13.486,3.96,13.486,11.72,0,10.995-9.7,14.55-19.407,14.55C299.3,57.5,289.674,53.857,289.18,42.786Zm-87.933-7.274c0-12.529,8.8-22.068,21.708-22.068,14.473,0,21.463,11.964,20.641,24.816H212.923c.329,7.274,3.947,10.588,10.443,10.588,4.688,0,8.469-2.828,9.21-5.416h10.28c-3.289,9.861-10.28,14.064-19.9,14.064C209.55,57.5,201.247,48.444,201.247,35.512Zm11.676-4.527h19c-1.068-5.82-3.616-8.892-9.292-8.892C215.225,22.094,213.087,27.753,212.923,30.985Zm-70.846,4.527c0-12.529,8.8-22.068,21.708-22.068,14.474,0,21.463,11.964,20.641,24.816H153.754c.328,7.274,3.946,10.588,10.444,10.588,4.686,0,8.469-2.828,9.209-5.416h10.279c-3.29,9.861-10.279,14.064-19.9,14.064C150.383,57.5,142.077,48.444,142.077,35.512Zm11.677-4.527h18.994c-1.069-5.82-3.618-8.892-9.291-8.892C156.056,22.094,153.918,27.753,153.754,30.985ZM43.2,57.112H43.19L18.223,57.1c-.24.01-.467.014-.694.014a17.4,17.4,0,0,1-5-.73q-.807-.238-1.594-.556a18.039,18.039,0,0,1-2.162-1.056,17.78,17.78,0,0,1-1.647-1.075l-.069-.052,0,0c-.018-.012-.04-.028-.065-.048a17.566,17.566,0,0,1-3.626-3.671L3.344,49.9,3.3,49.837l-.039-.054L3.2,49.7l-.032-.044-.008-.015q-.42-.6-.788-1.232A17.3,17.3,0,0,1,0,39.736v-.224c0-.042,0-.084,0-.126H0c0-.01,0-.02,0-.03H0A17.167,17.167,0,0,1,.14,37.385h0l0-.024h0c.008-.058.016-.114.023-.171H.171v-.014h0v-.01l0-.037h0v-.008c.007-.049.014-.1.023-.145h0c0-.009,0-.018,0-.026h0l0-.022,0-.02H.207l.012-.078.006-.035H.231c.006-.034.012-.069.017-.1h0c0-.01,0-.02,0-.028H.248c0-.025.008-.052.014-.081H.267l0-.014.011-.061.006-.033c0-.016.006-.029.008-.041l.025-.129A17.2,17.2,0,0,1,2.047,31.44q.134-.252.277-.5l.143-.246.018-.031-.019-.011L14.776,9.41l.03.017v0l.011-.02.011-.018A17.558,17.558,0,0,1,30.331,0h.041a17.4,17.4,0,0,1,2.5.185l.014,0,.039.006a17.6,17.6,0,0,1,6.047,2.076,17.6,17.6,0,0,1,6.869,7.062l.034.059v0l.03-.017L57.967,30.208l-.024.014.01.016.012.02.031.054a17.416,17.416,0,0,1,1.087,16.654q-.288.623-.625,1.222a17.659,17.659,0,0,1-5.61,6.016c-.309.2-.618.392-.917.563a17.548,17.548,0,0,1-5.505,2.041l-.034,0-.027,0-.073.016-.025,0-.161.027H46.1l-.047.007h-.007c-.044.008-.085.015-.125.021h0a.482.482,0,0,1-.066.01q-.307.047-.615.084h0q-.284.034-.568.058c-.324.028-.649.047-.97.056h-.019l-.075,0h-.014l-.02,0h-.129l-.235,0ZM32.772,48.389a17.684,17.684,0,0,1-1.733,2.475,16.561,16.561,0,0,0,12.135,5.269c.109,0,.221,0,.329,0h.024v0h.141q.294-.008.59-.028l.039,0,.028,0q.3-.021.6-.053l.029,0,.022,0,.071-.008h0l.047-.006c.2-.023.4-.051.6-.081l.025,0,.021,0,.075-.012.078-.014.046-.008h.006l.055-.01c.032-.007.064-.013.1-.018v0h0v0l.034-.006.056-.009.012,0,.014,0,.014,0v0a16.642,16.642,0,0,0,5.208-1.927c.279-.16.563-.334.867-.533l0,0,0,0,0,0a16.728,16.728,0,0,0,5.3-5.692h0a16.51,16.51,0,0,0,2.113-8.013,16.294,16.294,0,0,0-.37-3.5,16.463,16.463,0,0,0-1.847-4.766l-.391-.673h0a16.547,16.547,0,0,0-10.255-7.187,17.727,17.727,0,0,1-1.282,2.732l-.109.187,4.862,8.39.012-.008a8.508,8.508,0,0,1,1.379,3.8,8.623,8.623,0,0,1,.056.979,8.515,8.515,0,0,1-1.61,5l-.019.025a.532.532,0,0,1-.035.047l-.013.018v0l-.032.043c-.182.241-.371.467-.562.674l-2.324,2.9.792-1.585a8.615,8.615,0,0,1-4.766,1.462l-10.336-.007Zm-7.737,7.053a17.588,17.588,0,0,1-1.672.681l13.995.009A17.48,17.48,0,0,1,30.35,51.6,17.315,17.315,0,0,1,25.035,55.443Zm-7.529.678h.68a16.555,16.555,0,0,0,6.4-1.561,16.346,16.346,0,0,0,5.073-3.7,17.452,17.452,0,0,1-1.732-2.474l-.1-.179-9.786,0c-.188.01-.344.016-.49.016H17.53a8.643,8.643,0,0,1-7.4-4.206c-.01-.015-.023-.036-.038-.063l-.009-.016A8.478,8.478,0,0,1,9.031,40.99l-.008-.026,0-.039a8.536,8.536,0,0,1,1.033-5.544l5.165-8.9-.115-.2a17.718,17.718,0,0,1-1.27-2.723,16.561,16.561,0,0,0-10.52,7.629h0l-.14.239a16.471,16.471,0,0,0-1.6,3.8q-.191.686-.321,1.388c0,.013,0,.024-.007.034l-.006.031c-.006.039-.014.078-.021.118v0l0,.02,0,.012,0,.033c-.007.038-.014.077-.02.115l-.019.111,0,.016,0,.022,0,.028,0,.012c-.006.035-.013.08-.017.117l0,.027c0,.014,0,.028-.006.042h0c0,.027-.007.054-.011.08l-.012.09,0,.029A16.825,16.825,0,0,0,.98,39.4,16.476,16.476,0,0,0,1.4,43.3l0,.021.011.046.011.048,0,.018q.144.6.333,1.2A16.491,16.491,0,0,0,3.977,49.1v0h0l.018.028,0,0c.009.014.019.027.028.04l.029.041,0,0,.085.117-.007.005,0,.005.006,0a16.757,16.757,0,0,0,3.431,3.48l0,0h0l0,0,.014.011,0,0a.434.434,0,0,0,.044.032h0l0,0c.017.012.039.027.064.047h0a16.2,16.2,0,0,0,1.562,1.018,17.016,17.016,0,0,0,2.036.995h0a16.452,16.452,0,0,0,4.018,1.061A16.78,16.78,0,0,0,17.506,56.12ZM30.35,50.051a16.718,16.718,0,0,0,1.336-1.88h-2.67A16.76,16.76,0,0,0,30.35,50.051Zm-16.64-3.844a7.632,7.632,0,0,0,3.82,1.023h.461v-.016a7.6,7.6,0,0,0,6.145-3.779l.494-.854L18.523,32.043h-1A7.637,7.637,0,0,0,10.953,35.8l-.041.071q-.138.24-.257.488a7.537,7.537,0,0,0-.743,3.279A7.731,7.731,0,0,0,10,40.776v0h-.01c0,.008,0,.016,0,.023H10l0,.022h0l0,.026h0a7.637,7.637,0,0,0,.931,2.581h0a.889.889,0,0,1,.057.1l0,0A7.657,7.657,0,0,0,13.709,46.207Zm22.858-2.777A7.573,7.573,0,0,0,39.4,46.242a7.666,7.666,0,0,0,9.1-1.187l.008-.008.125-.125,0,0,.006.005c.1-.1.194-.206.285-.312l0,0c.106-.123.211-.252.313-.386a.542.542,0,0,1,.065-.094c.019-.029.036-.051.046-.064l0,0,0,0,.012-.015-.005,0,0,0a7.584,7.584,0,0,0,.633-7.785L50,36.242l-.014-.027a7.6,7.6,0,0,0-.453-.776l0-.006-.01.006a7.613,7.613,0,0,0-6.346-3.4H42.166l-6.1,10.533Zm-3.145,3.793,5.752,0c-.084-.044-.168-.089-.252-.136a8.554,8.554,0,0,1-3.2-3.172l-.193-.333Zm-8.441-3.3a8.536,8.536,0,0,1-3.429,3.292l5.724,0-2.1-3.629Zm7.3,3.255,2.64-4.567-4.573-7.89L25.78,42.615l2.64,4.561ZM25.2,41.618l4.567-7.9-.005-.009.021-.036-.946-1.631H19.653Zm10.3-.005,5.54-9.573H31.907l0,0h-.048l-.944,1.631.021.036-.006.01ZM30.348,32.7l.38-.656h-.761Zm-17.417-.307a8.552,8.552,0,0,1,4.6-1.325H17.9l-2.1-3.613Zm29.855-1.325h.389a8.594,8.594,0,0,1,4.569,1.31L44.886,27.45Zm-11.494,0,.028-.048h.008l4.562-7.868H24.8l4.566,7.868h.011l.028.048Zm10.339-.048,2.634-4.543-1.927-3.325H37.065L32.5,31.019Zm-13.438,0-4.573-7.868H18.354l-1.932,3.33,2.632,4.538Zm-22.1-4.676a17.5,17.5,0,0,1,7.437-3.776,17.306,17.306,0,0,1-.686-6.473,17.662,17.662,0,0,1,.247-1.825Zm41.768-10.27a17.264,17.264,0,0,1-.692,6.492A17.34,17.34,0,0,1,53.13,25.2a17.812,17.812,0,0,1,1.457,1.119L47.616,14.273A17.729,17.729,0,0,1,47.859,16.074Zm-32.976,7.3A16.845,16.845,0,0,0,15.86,25.5l1.358-2.339A16.587,16.587,0,0,0,14.884,23.372ZM44.826,25.49a16.388,16.388,0,0,0,.981-2.121,16.689,16.689,0,0,0-2.332-.214ZM42.93,22.1h.218a17.615,17.615,0,0,1,3.012.259,16.29,16.29,0,0,0,.678-6.213,16.487,16.487,0,0,0-1.815-6.283h0l-.37-.638A16.349,16.349,0,0,0,39.74,3.9h0c-.362-.249-.741-.488-1.125-.709-.135-.078-.273-.155-.41-.229h0a16.5,16.5,0,0,0-15.984.156,16.489,16.489,0,0,0-6.165,6.105l-.391.674h0a16.537,16.537,0,0,0-1.129,12.461,17.754,17.754,0,0,1,3.018-.259h.211l4.857-8.388L22.6,13.7a8.576,8.576,0,0,1,3.419-3.64,8.692,8.692,0,0,1,2.356-.928,8.554,8.554,0,0,1,1.968-.23c.148,0,.293.006.4.012a8.464,8.464,0,0,1,1.42.183l.008,0a8.6,8.6,0,0,1,2.29.841c.073.039.146.08.218.121A8.573,8.573,0,0,1,38.1,13.7l-.02.01Zm-6.491.076.513-.887a7.573,7.573,0,0,0,.227-7.159l.012-.006v0a7.631,7.631,0,0,0-5.128-4.047,7.712,7.712,0,0,0-1.341-.181v0h-.038v0l-.131,0-.209,0A7.6,7.6,0,0,0,26.534,10.9a7.606,7.606,0,0,0-3.025,3.223h0l.012.006a7.6,7.6,0,0,0,.211,7.155l.515.89ZM18.9,22.111h4.185l-.2-.34a8.577,8.577,0,0,1-1.126-4.6Zm18.9-.336-.194.335H41.8l-2.856-4.935A8.538,8.538,0,0,1,37.8,21.775ZM186.892,56.363V.406H198.57V56.363Zm-58.877,0V32.683c0-5.577-.493-10.185-7.155-10.185-6.578,0-7.812,5.333-7.812,10.588V56.363H101.372V32.924c0-4.85.329-10.426-7.072-10.426-2.3,0-7.894,1.455-7.894,9.617V56.363H74.728V14.578h11.02v5.657h.164a15.429,15.429,0,0,1,12.993-6.79c5.346,0,10.114,1.942,12.417,6.954a15.5,15.5,0,0,1,12.828-6.954c9.045,0,15.542,4.123,15.542,14.956V56.363Z" fill="#fff"/>
</svg>
